HIERARCHY
ROOT Hips
{
	OFFSET 0.00000 0.00000 0.00000
	CHANNELS 6 Xposition Yposition Zposition Zrotation Yrotation Xrotation 
	JOINT LHipJoint
	{
		OFFSET 0 0 0
		CHANNELS 3 Zrotation Yrotation Xrotation
		JOINT LeftHip
		{
			OFFSET 1.28366 -1.58472 0.87544
			CHANNELS 3 Zrotation Yrotation Xrotation
			JOINT LeftKnee
			{
				OFFSET 2.18587 -6.00562 0.00000
				CHANNELS 3 Zrotation Yrotation Xrotation
				JOINT LeftAnkle
				{
					OFFSET 2.39085 -6.56880 0.00000
					CHANNELS 3 Zrotation Yrotation Xrotation
					JOINT LeftToe
					{
						OFFSET 0.12003 -0.32979 2.03101
						CHANNELS 3 Zrotation Yrotation Xrotation
						End Site
						{
							OFFSET 0.00000 -0.00000 1.04074
						}
					}
				}
			}
		}
	}
	JOINT RHipJoint
	{
		OFFSET 0 0 0
		CHANNELS 3 Zrotation Yrotation Xrotation
		JOINT RightHip
		{
			OFFSET -1.21795 -1.58472 0.87544
			CHANNELS 3 Zrotation Yrotation Xrotation
			JOINT RightKnee
			{
				OFFSET -2.22714 -6.11902 0.00000
				CHANNELS 3 Zrotation Yrotation Xrotation
				JOINT RightAnkle
				{
					OFFSET -2.40306 -6.60235 0.00000
					CHANNELS 3 Zrotation Yrotation Xrotation
					JOINT RightToe
					{
						OFFSET -0.15519 -0.42640 1.91430
						CHANNELS 3 Zrotation Yrotation Xrotation
						End Site
						{
							OFFSET -0.00000 -0.00000 0.99082
						}
					}
				}
			}
		}
	}
	JOINT lowerback
	{
		OFFSET 0 0 0
		CHANNELS 3 Zrotation Yrotation Xrotation
		JOINT Chest
		{
			OFFSET 0.01180 1.76430 -0.06387
			CHANNELS 3 Zrotation Yrotation Xrotation
			JOINT Chest2
			{
				OFFSET -0.00388 1.74651 0.09536
				CHANNELS 3 Zrotation Yrotation Xrotation
				JOINT lowerneck
				{
					OFFSET 0 0 0
					CHANNELS 3 Zrotation Yrotation Xrotation
					JOINT Neck
					{
						OFFSET 0.04111 1.46174 0.14397
						CHANNELS 3 Zrotation Yrotation Xrotation
						JOINT Head
						{
							OFFSET 0.00502 1.44580 -0.31711
							CHANNELS 3 Zrotation Yrotation Xrotation
							End Site
							{
								OFFSET -0.00395 1.49251 -0.12327
							}
						}
					}
				}
				JOINT LeftCollar
				{
					OFFSET 0 0 0
					CHANNELS 3 Zrotation Yrotation Xrotation
					JOINT LeftShoulder
					{
						OFFSET 2.70917 1.34870 -0.15417
CHANNELS 3 Zrotation Xrotation Yrotation
						JOINT LeftElbow
						{
OFFSET 0 -4.466100 -0.000000
CHANNELS 3 Zrotation Xrotation Yrotation
							JOINT LeftWrist
							{
OFFSET 0 -3.414140 0.000000
CHANNELS 3 Zrotation Xrotation Yrotation
								JOINT lhand
								{
									OFFSET 0 0 0
CHANNELS 3 Zrotation Xrotation Yrotation
									JOINT LFingers
									{
OFFSET 0 -0.328300 0.000000
CHANNELS 3 Zrotation Xrotation Yrotation
										End Site
										{
OFFSET 0 -0.264680 0.000000
										}
									}
								}
								JOINT LThumb
								{
OFFSET 0 0.000000 0.000000
CHANNELS 3 Zrotation Xrotation Yrotation
									End Site
									{
OFFSET 0 -0.268720 0.268720
									}
								}
							}
						}
					}
				}
				JOINT RightCollar
				{
					OFFSET 0 0 0
					CHANNELS 3 Zrotation Yrotation Xrotation
					JOINT RightShoulder
					{
						OFFSET -3.06316 1.13725 -0.10883
CHANNELS 3 Zrotation Xrotation Yrotation
						JOINT RightElbow
						{
OFFSET 0 -4.404310 0.000000
CHANNELS 3 Zrotation Xrotation Yrotation
							JOINT RightWrist
							{
OFFSET 0 -3.046880 0.000000
CHANNELS 3 Zrotation Xrotation Yrotation
								JOINT rhand
								{
									OFFSET 0 0 0
CHANNELS 3 Zrotation Xrotation Yrotation
									JOINT RFingers
									{
OFFSET 0 -0.500490 0.000000
CHANNELS 3 Zrotation Xrotation Yrotation
										End Site
										{
OFFSET 0 -0.403510 0.000000
										}
									}
								}
								JOINT RThumb
								{
OFFSET 0 0.000000 0.000000
CHANNELS 3 Zrotation Xrotation Yrotation
									End Site
									{
OFFSET 0 -0.409670 0.409670
									}
								}
							}
						}
					}
				}
			}
		}
	}
}
MOTION
Frames: 4
Frame Time: 0.008333333333333333
7.470100 15.673000 0.286600 -22.052700 -87.825100 29.143700 0.000000 0.000000 0.000000 -10.016500 -12.856600 -2.145400 0.442500 4.268000 11.832000 -2.566400 29.157300 -23.686800 0.508700 4.571700 12.690800 0.000000 0.000000 0.000000 8.933100 20.174800 -4.406600 -1.019900 -6.424700 18.021900 2.850200 -30.244400 -23.918700 -0.160100 -2.578400 7.107100 -1.005800 1.103400 -0.542600 0.263600 1.378000 -4.949800 0.787300 0.698000 -4.832100 6.187200 2.591600 -17.917100 -2.139300 2.259600 18.691100 -1.462500 1.243400 8.915500 -0.000000 -0.000000 0.000000 68.419700 -5.485600 12.797200 15.854500 -25.323000 3.583500 -17.631000 8.790800 -15.047500 0.000000 0.000000 0.000000 -7.125000 0.000000 0.000000 -38.952500 41.515400 -4.061900 -0.000000 -0.000000 0.000000 -61.512000 -2.034300 -15.637200 -18.684800 -29.025100 -4.877000 8.919500 -0.373000 1.930500 0.000000 0.000000 0.000000 7.125000 0.000000 -0.000000 27.534800 30.967900 10.562700
7.464872 15.672383 0.286783 -21.953680 -87.787343 29.050837 0.000000 0.000000 0.000000 -10.005056 -12.873629 -2.149673 0.444733 4.278872 11.862645 -2.566961 29.159739 -23.688038 0.504744 4.554349 12.641670 0.000000 0.000000 0.000000 8.956167 20.174848 -4.365309 -1.018506 -6.420600 18.009755 2.848798 -30.261871 -23.995148 -0.163146 -2.602176 7.173047 -0.997956 1.112650 -0.538106 0.279788 1.390684 -4.962728 0.798888 0.704322 -4.848694 6.281583 2.637044 -17.816768 -2.369856 2.355239 18.623072 -1.544945 1.269972 8.882028 0.000000 0.000000 0.000000 68.413201 -5.433706 12.793119 15.867999 -25.341327 3.589294 -17.658144 8.723975 -15.193968 0.000000 0.000000 0.000000 -7.125000 0.000000 0.000000 -39.049022 41.633142 -3.936186 0.000000 0.000000 0.000000 -61.568154 -1.999197 -15.693083 -18.698479 -29.042269 -4.883623 8.946996 -0.326790 1.918949 0.000000 0.000000 0.000000 7.125000 0.000000 0.000000 27.551173 30.955905 10.579673
7.460589 15.671822 0.286600 -21.499578 -87.737486 28.601811 0.000000 0.000000 0.000000 -9.996311 -12.875066 -2.167412 0.446211 4.285978 11.882757 -2.572667 29.158822 -23.616428 0.493922 4.505786 12.504136 0.000000 0.000000 0.000000 8.973334 20.179042 -4.319343 -1.017389 -6.417144 17.999811 2.836589 -30.261234 -24.139478 -0.172889 -2.678477 7.384876 -0.996789 1.114433 -0.529666 0.276578 1.393122 -4.960111 0.794722 0.705500 -4.850744 6.306446 2.644623 -17.803277 -2.458349 2.380101 18.576708 -1.575924 1.273722 8.866121 0.000000 0.000000 0.000000 68.428467 -5.418009 12.881605 15.843343 -25.307809 3.578777 -17.574275 8.831584 -15.040812 0.000000 0.000000 0.000000 -7.125000 0.000000 0.000000 -38.907704 41.516803 -4.053475 0.000000 0.000000 0.000000 -61.562578 -1.938786 -15.698678 -18.736613 -29.090046 -4.902090 8.965055 -0.444249 1.906544 0.000000 0.000000 0.000000 7.125000 0.000000 0.000000 27.560555 30.943655 10.593478
7.456716 15.671617 0.286483 -20.962429 -87.687980 28.066864 0.000000 0.000000 0.000000 -9.991484 -12.853531 -2.185068 0.446967 4.289300 11.892033 -2.574733 29.139565 -23.528560 0.483416 4.458447 12.370242 0.000000 0.000000 0.000000 8.984033 20.137398 -4.292849 -1.016150 -6.413366 17.988533 2.836700 -30.268934 -24.163755 -0.173967 -2.686619 7.407473 -1.010369 1.103182 -0.524701 0.278883 1.378365 -4.948666 0.805268 0.698866 -4.841632 6.312199 2.643532 -17.792666 -2.506801 2.389149 18.522346 -1.592067 1.272983 8.846515 0.000000 0.000000 0.000000 68.431900 -5.373480 12.950304 15.814997 -25.269063 3.566566 -17.544417 8.914286 -14.930786 0.000000 0.000000 0.000000 -7.125000 0.000000 0.000000 -38.828585 41.429436 -4.144898 0.000000 0.000000 0.000000 -61.568218 -1.913199 -15.686798 -18.742616 -29.097649 -4.905066 8.936765 -0.477032 1.891984 0.000000 0.000000 0.000000 7.125000 0.000000 0.000000 27.536465 30.932334 10.590516
